<?xml version="1.0" encoding="utf-8" standalone="no"?>
<!DOCTYPE svg PUBLIC "-//W3C//DTD SVG 1.1//EN"
  "http://www.w3.org/Graphics/SVG/1.1/DTD/svg11.dtd">
<svg xmlns:xlink="http://www.w3.org/1999/xlink" width="712.770312pt" height="423.274375pt" viewBox="0 0 712.770312 423.274375" xmlns="http://www.w3.org/2000/svg" version="1.1">
 <metadata>
  <rdf:RDF xmlns:dc="http://purl.org/dc/elements/1.1/" xmlns:cc="http://creativecommons.org/ns#" xmlns:rdf="http://www.w3.org/1999/02/22-rdf-syntax-ns#">
   <cc:Work>
    <dc:type rdf:resource="http://purl.org/dc/dcmitype/StillImage"/>
    <dc:date>2024-12-14T20:30:29.339638</dc:date>
    <dc:format>image/svg+xml</dc:format>
    <dc:creator>
     <cc:Agent>
      <dc:title>Matplotlib v3.9.2, https://matplotlib.org/</dc:title>
     </cc:Agent>
    </dc:creator>
   </cc:Work>
  </rdf:RDF>
 </metadata>
 <defs>
  <style type="text/css">*{stroke-linejoin: round; stroke-linecap: butt}</style>
 </defs>
 <g id="figure_1">
  <g id="patch_1">
   <path d="M 0 423.274375 
L 712.770312 423.274375 
L 712.770312 0 
L 0 0 
z
" style="fill: #ffffff"/>
  </g>
  <g id="axes_1">
   <g id="patch_2">
    <path d="M 65.920313 385.718125 
L 705.570312 385.718125 
L 705.570312 22.318125 
L 65.920313 22.318125 
z
" style="fill: #ffffff"/>
   </g>
   <g id="patch_3">
    <path d="M 193.206353 369.199943 
L 676.495312 369.199943 
L 676.495312 356.493649 
L 193.206353 356.493649 
z
" clip-path="url(#p3246e03c10)" style="fill: #1f77b4"/>
   </g>
   <g id="patch_4">
    <path d="M 193.206353 353.317076 
L 643.11323 353.317076 
L 643.11323 340.610782 
L 193.206353 340.610782 
z
" clip-path="url(#p3246e03c10)" style="fill: #1f77b4"/>
   </g>
   <g id="patch_5">
    <path d="M 193.206353 337.434209 
L 630.017209 337.434209 
L 630.017209 324.727915 
L 193.206353 324.727915 
z
" clip-path="url(#p3246e03c10)" style="fill: #1f77b4"/>
   </g>
   <g id="patch_6">
    <path d="M 193.206353 321.551342 
L 575.650468 321.551342 
L 575.650468 308.845048 
L 193.206353 308.845048 
z
" clip-path="url(#p3246e03c10)" style="fill: #1f77b4"/>
   </g>
   <g id="patch_7">
    <path d="M 193.206353 305.668475 
L 561.547975 305.668475 
L 561.547975 292.962181 
L 193.206353 292.962181 
z
" clip-path="url(#p3246e03c10)" style="fill: #1f77b4"/>
   </g>
   <g id="patch_8">
    <path d="M 193.206353 289.785608 
L 555.50502 289.785608 
L 555.50502 277.079314 
L 193.206353 277.079314 
z
" clip-path="url(#p3246e03c10)" style="fill: #1f77b4"/>
   </g>
   <g id="patch_9">
    <path d="M 193.206353 273.90274 
L 540.384001 273.90274 
L 540.384001 261.196447 
L 193.206353 261.196447 
z
" clip-path="url(#p3246e03c10)" style="fill: #1f77b4"/>
   </g>
   <g id="patch_10">
    <path d="M 193.206353 258.019873 
L 488.491459 258.019873 
L 488.491459 245.31358 
L 193.206353 245.31358 
z
" clip-path="url(#p3246e03c10)" style="fill: #1f77b4"/>
   </g>
   <g id="patch_11">
    <path d="M 193.206353 242.137006 
L 484.048701 242.137006 
L 484.048701 229.430712 
L 193.206353 229.430712 
z
" clip-path="url(#p3246e03c10)" style="fill: #1f77b4"/>
   </g>
   <g id="patch_12">
    <path d="M 193.206353 226.254139 
L 476.290661 226.254139 
L 476.290661 213.547845 
L 193.206353 213.547845 
z
" clip-path="url(#p3246e03c10)" style="fill: #1f77b4"/>
   </g>
   <g id="patch_13">
    <path d="M 193.206353 210.371272 
L 469.815924 210.371272 
L 469.815924 197.664978 
L 193.206353 197.664978 
z
" clip-path="url(#p3246e03c10)" style="fill: #1f77b4"/>
   </g>
   <g id="patch_14">
    <path d="M 193.206353 194.488405 
L 447.600188 194.488405 
L 447.600188 181.782111 
L 193.206353 181.782111 
z
" clip-path="url(#p3246e03c10)" style="fill: #1f77b4"/>
   </g>
   <g id="patch_15">
    <path d="M 193.206353 178.605538 
L 439.921554 178.605538 
L 439.921554 165.899244 
L 193.206353 165.899244 
z
" clip-path="url(#p3246e03c10)" style="fill: #1f77b4"/>
   </g>
   <g id="patch_16">
    <path d="M 193.206353 162.72267 
L 404.108806 162.72267 
L 404.108806 150.016377 
L 193.206353 150.016377 
z
" clip-path="url(#p3246e03c10)" style="fill: #1f77b4"/>
   </g>
   <g id="patch_17">
    <path d="M 193.206353 146.839803 
L 396.305873 146.839803 
L 396.305873 134.13351 
L 193.206353 134.13351 
z
" clip-path="url(#p3246e03c10)" style="fill: #1f77b4"/>
   </g>
   <g id="patch_18">
    <path d="M 193.206353 130.956936 
L 358.132331 130.956936 
L 358.132331 118.250642 
L 193.206353 118.250642 
z
" clip-path="url(#p3246e03c10)" style="fill: #1f77b4"/>
   </g>
   <g id="patch_19">
    <path d="M 193.206353 115.074069 
L 336.953454 115.074069 
L 336.953454 102.367775 
L 193.206353 102.367775 
z
" clip-path="url(#p3246e03c10)" style="fill: #1f77b4"/>
   </g>
   <g id="patch_20">
    <path d="M 193.206353 99.191202 
L 278.365484 99.191202 
L 278.365484 86.484908 
L 193.206353 86.484908 
z
" clip-path="url(#p3246e03c10)" style="fill: #1f77b4"/>
   </g>
   <g id="patch_21">
    <path d="M 193.206353 83.308335 
L 236.047868 83.308335 
L 236.047868 70.602041 
L 193.206353 70.602041 
z
" clip-path="url(#p3246e03c10)" style="fill: #1f77b4"/>
   </g>
   <g id="patch_22">
    <path d="M 193.206353 67.425468 
L 203.642125 67.425468 
L 203.642125 54.719174 
L 193.206353 54.719174 
z
" clip-path="url(#p3246e03c10)" style="fill: #1f77b4"/>
   </g>
   <g id="patch_23">
    <path d="M 193.206353 51.542601 
L 94.995312 51.542601 
L 94.995312 38.836307 
L 193.206353 38.836307 
z
" clip-path="url(#p3246e03c10)" style="fill: #1f77b4"/>
   </g>
   <g id="matplotlib.axis_1">
    <g id="xtick_1">
     <g id="line2d_1">
      <defs>
       <path id="m564d5f9726" d="M 0 0 
L 0 3.5 
" style="stroke: #000000; stroke-width: 0.8"/>
      </defs>
      <g>
       <use xlink:href="#m564d5f9726" x="106.073146" y="385.718125" style="stroke: #000000; stroke-width: 0.8"/>
      </g>
     </g>
     <g id="text_1">
      <!-- −0.02 -->
      <g transform="translate(90.750489 400.316562) scale(0.1 -0.1)">
       <defs>
        <path id="DejaVuSans-2212" d="M 678 2272 
L 4684 2272 
L 4684 1741 
L 678 1741 
L 678 2272 
z
" transform="scale(0.015625)"/>
        <path id="DejaVuSans-30" d="M 2034 4250 
Q 1547 4250 1301 3770 
Q 1056 3291 1056 2328 
Q 1056 1369 1301 889 
Q 1547 409 2034 409 
Q 2525 409 2770 889 
Q 3016 1369 3016 2328 
Q 3016 3291 2770 3770 
Q 2525 4250 2034 4250 
z
M 2034 4750 
Q 2819 4750 3233 4129 
Q 3647 3509 3647 2328 
Q 3647 1150 3233 529 
Q 2819 -91 2034 -91 
Q 1250 -91 836 529 
Q 422 1150 422 2328 
Q 422 3509 836 4129 
Q 1250 4750 2034 4750 
z
" transform="scale(0.015625)"/>
        <path id="DejaVuSans-2e" d="M 684 794 
L 1344 794 
L 1344 0 
L 684 0 
L 684 794 
z
" transform="scale(0.015625)"/>
        <path id="DejaVuSans-32" d="M 1228 531 
L 3431 531 
L 3431 0 
L 469 0 
L 469 531 
Q 828 903 1448 1529 
Q 2069 2156 2228 2338 
Q 2531 2678 2651 2914 
Q 2772 3150 2772 3378 
Q 2772 3750 2511 3984 
Q 2250 4219 1831 4219 
Q 1534 4219 1204 4116 
Q 875 4013 500 3803 
L 500 4441 
Q 881 4594 1212 4672 
Q 1544 4750 1819 4750 
Q 2544 4750 2975 4387 
Q 3406 4025 3406 3419 
Q 3406 3131 3298 2873 
Q 3191 2616 2906 2266 
Q 2828 2175 2409 1742 
Q 1991 1309 1228 531 
z
" transform="scale(0.015625)"/>
       </defs>
       <use xlink:href="#DejaVuSans-2212"/>
       <use xlink:href="#DejaVuSans-30" x="83.789062"/>
       <use xlink:href="#DejaVuSans-2e" x="147.412109"/>
       <use xlink:href="#DejaVuSans-30" x="179.199219"/>
       <use xlink:href="#DejaVuSans-32" x="242.822266"/>
      </g>
     </g>
    </g>
    <g id="xtick_2">
     <g id="line2d_2">
      <g>
       <use xlink:href="#m564d5f9726" x="193.206353" y="385.718125" style="stroke: #000000; stroke-width: 0.8"/>
      </g>
     </g>
     <g id="text_2">
      <!-- 0.00 -->
      <g transform="translate(182.073541 400.316562) scale(0.1 -0.1)">
       <use xlink:href="#DejaVuSans-30"/>
       <use xlink:href="#DejaVuSans-2e" x="63.623047"/>
       <use xlink:href="#DejaVuSans-30" x="95.410156"/>
       <use xlink:href="#DejaVuSans-30" x="159.033203"/>
      </g>
     </g>
    </g>
    <g id="xtick_3">
     <g id="line2d_3">
      <g>
       <use xlink:href="#m564d5f9726" x="280.339561" y="385.718125" style="stroke: #000000; stroke-width: 0.8"/>
      </g>
     </g>
     <g id="text_3">
      <!-- 0.02 -->
      <g transform="translate(269.206748 400.316562) scale(0.1 -0.1)">
       <use xlink:href="#DejaVuSans-30"/>
       <use xlink:href="#DejaVuSans-2e" x="63.623047"/>
       <use xlink:href="#DejaVuSans-30" x="95.410156"/>
       <use xlink:href="#DejaVuSans-32" x="159.033203"/>
      </g>
     </g>
    </g>
    <g id="xtick_4">
     <g id="line2d_4">
      <g>
       <use xlink:href="#m564d5f9726" x="367.472768" y="385.718125" style="stroke: #000000; stroke-width: 0.8"/>
      </g>
     </g>
     <g id="text_4">
      <!-- 0.04 -->
      <g transform="translate(356.339956 400.316562) scale(0.1 -0.1)">
       <defs>
        <path id="DejaVuSans-34" d="M 2419 4116 
L 825 1625 
L 2419 1625 
L 2419 4116 
z
M 2253 4666 
L 3047 4666 
L 3047 1625 
L 3713 1625 
L 3713 1100 
L 3047 1100 
L 3047 0 
L 2419 0 
L 2419 1100 
L 313 1100 
L 313 1709 
L 2253 4666 
z
" transform="scale(0.015625)"/>
       </defs>
       <use xlink:href="#DejaVuSans-30"/>
       <use xlink:href="#DejaVuSans-2e" x="63.623047"/>
       <use xlink:href="#DejaVuSans-30" x="95.410156"/>
       <use xlink:href="#DejaVuSans-34" x="159.033203"/>
      </g>
     </g>
    </g>
    <g id="xtick_5">
     <g id="line2d_5">
      <g>
       <use xlink:href="#m564d5f9726" x="454.605976" y="385.718125" style="stroke: #000000; stroke-width: 0.8"/>
      </g>
     </g>
     <g id="text_5">
      <!-- 0.06 -->
      <g transform="translate(443.473163 400.316562) scale(0.1 -0.1)">
       <defs>
        <path id="DejaVuSans-36" d="M 2113 2584 
Q 1688 2584 1439 2293 
Q 1191 2003 1191 1497 
Q 1191 994 1439 701 
Q 1688 409 2113 409 
Q 2538 409 2786 701 
Q 3034 994 3034 1497 
Q 3034 2003 2786 2293 
Q 2538 2584 2113 2584 
z
M 3366 4563 
L 3366 3988 
Q 3128 4100 2886 4159 
Q 2644 4219 2406 4219 
Q 1781 4219 1451 3797 
Q 1122 3375 1075 2522 
Q 1259 2794 1537 2939 
Q 1816 3084 2150 3084 
Q 2853 3084 3261 2657 
Q 3669 2231 3669 1497 
Q 3669 778 3244 343 
Q 2819 -91 2113 -91 
Q 1303 -91 875 529 
Q 447 1150 447 2328 
Q 447 3434 972 4092 
Q 1497 4750 2381 4750 
Q 2619 4750 2861 4703 
Q 3103 4656 3366 4563 
z
" transform="scale(0.015625)"/>
       </defs>
       <use xlink:href="#DejaVuSans-30"/>
       <use xlink:href="#DejaVuSans-2e" x="63.623047"/>
       <use xlink:href="#DejaVuSans-30" x="95.410156"/>
       <use xlink:href="#DejaVuSans-36" x="159.033203"/>
      </g>
     </g>
    </g>
    <g id="xtick_6">
     <g id="line2d_6">
      <g>
       <use xlink:href="#m564d5f9726" x="541.739183" y="385.718125" style="stroke: #000000; stroke-width: 0.8"/>
      </g>
     </g>
     <g id="text_6">
      <!-- 0.08 -->
      <g transform="translate(530.606371 400.316562) scale(0.1 -0.1)">
       <defs>
        <path id="DejaVuSans-38" d="M 2034 2216 
Q 1584 2216 1326 1975 
Q 1069 1734 1069 1313 
Q 1069 891 1326 650 
Q 1584 409 2034 409 
Q 2484 409 2743 651 
Q 3003 894 3003 1313 
Q 3003 1734 2745 1975 
Q 2488 2216 2034 2216 
z
M 1403 2484 
Q 997 2584 770 2862 
Q 544 3141 544 3541 
Q 544 4100 942 4425 
Q 1341 4750 2034 4750 
Q 2731 4750 3128 4425 
Q 3525 4100 3525 3541 
Q 3525 3141 3298 2862 
Q 3072 2584 2669 2484 
Q 3125 2378 3379 2068 
Q 3634 1759 3634 1313 
Q 3634 634 3220 271 
Q 2806 -91 2034 -91 
Q 1263 -91 848 271 
Q 434 634 434 1313 
Q 434 1759 690 2068 
Q 947 2378 1403 2484 
z
M 1172 3481 
Q 1172 3119 1398 2916 
Q 1625 2713 2034 2713 
Q 2441 2713 2670 2916 
Q 2900 3119 2900 3481 
Q 2900 3844 2670 4047 
Q 2441 4250 2034 4250 
Q 1625 4250 1398 4047 
Q 1172 3844 1172 3481 
z
" transform="scale(0.015625)"/>
       </defs>
       <use xlink:href="#DejaVuSans-30"/>
       <use xlink:href="#DejaVuSans-2e" x="63.623047"/>
       <use xlink:href="#DejaVuSans-30" x="95.410156"/>
       <use xlink:href="#DejaVuSans-38" x="159.033203"/>
      </g>
     </g>
    </g>
    <g id="xtick_7">
     <g id="line2d_7">
      <g>
       <use xlink:href="#m564d5f9726" x="628.872391" y="385.718125" style="stroke: #000000; stroke-width: 0.8"/>
      </g>
     </g>
     <g id="text_7">
      <!-- 0.10 -->
      <g transform="translate(617.739578 400.316562) scale(0.1 -0.1)">
       <defs>
        <path id="DejaVuSans-31" d="M 794 531 
L 1825 531 
L 1825 4091 
L 703 3866 
L 703 4441 
L 1819 4666 
L 2450 4666 
L 2450 531 
L 3481 531 
L 3481 0 
L 794 0 
L 794 531 
z
" transform="scale(0.015625)"/>
       </defs>
       <use xlink:href="#DejaVuSans-30"/>
       <use xlink:href="#DejaVuSans-2e" x="63.623047"/>
       <use xlink:href="#DejaVuSans-31" x="95.410156"/>
       <use xlink:href="#DejaVuSans-30" x="159.033203"/>
      </g>
     </g>
    </g>
    <g id="text_8">
     <!-- Difference between DL and LogReg Models -->
     <g transform="translate(278.235156 413.994687) scale(0.1 -0.1)">
      <defs>
       <path id="DejaVuSans-44" d="M 1259 4147 
L 1259 519 
L 2022 519 
Q 2988 519 3436 956 
Q 3884 1394 3884 2338 
Q 3884 3275 3436 3711 
Q 2988 4147 2022 4147 
L 1259 4147 
z
M 628 4666 
L 1925 4666 
Q 3281 4666 3915 4102 
Q 4550 3538 4550 2338 
Q 4550 1131 3912 565 
Q 3275 0 1925 0 
L 628 0 
L 628 4666 
z
" transform="scale(0.015625)"/>
       <path id="DejaVuSans-69" d="M 603 3500 
L 1178 3500 
L 1178 0 
L 603 0 
L 603 3500 
z
M 603 4863 
L 1178 4863 
L 1178 4134 
L 603 4134 
L 603 4863 
z
" transform="scale(0.015625)"/>
       <path id="DejaVuSans-66" d="M 2375 4863 
L 2375 4384 
L 1825 4384 
Q 1516 4384 1395 4259 
Q 1275 4134 1275 3809 
L 1275 3500 
L 2222 3500 
L 2222 3053 
L 1275 3053 
L 1275 0 
L 697 0 
L 697 3053 
L 147 3053 
L 147 3500 
L 697 3500 
L 697 3744 
Q 697 4328 969 4595 
Q 1241 4863 1831 4863 
L 2375 4863 
z
" transform="scale(0.015625)"/>
       <path id="DejaVuSans-65" d="M 3597 1894 
L 3597 1613 
L 953 1613 
Q 991 1019 1311 708 
Q 1631 397 2203 397 
Q 2534 397 2845 478 
Q 3156 559 3463 722 
L 3463 178 
Q 3153 47 2828 -22 
Q 2503 -91 2169 -91 
Q 1331 -91 842 396 
Q 353 884 353 1716 
Q 353 2575 817 3079 
Q 1281 3584 2069 3584 
Q 2775 3584 3186 3129 
Q 3597 2675 3597 1894 
z
M 3022 2063 
Q 3016 2534 2758 2815 
Q 2500 3097 2075 3097 
Q 1594 3097 1305 2825 
Q 1016 2553 972 2059 
L 3022 2063 
z
" transform="scale(0.015625)"/>
       <path id="DejaVuSans-72" d="M 2631 2963 
Q 2534 3019 2420 3045 
Q 2306 3072 2169 3072 
Q 1681 3072 1420 2755 
Q 1159 2438 1159 1844 
L 1159 0 
L 581 0 
L 581 3500 
L 1159 3500 
L 1159 2956 
Q 1341 3275 1631 3429 
Q 1922 3584 2338 3584 
Q 2397 3584 2469 3576 
Q 2541 3569 2628 3553 
L 2631 2963 
z
" transform="scale(0.015625)"/>
       <path id="DejaVuSans-6e" d="M 3513 2113 
L 3513 0 
L 2938 0 
L 2938 2094 
Q 2938 2591 2744 2837 
Q 2550 3084 2163 3084 
Q 1697 3084 1428 2787 
Q 1159 2491 1159 1978 
L 1159 0 
L 581 0 
L 581 3500 
L 1159 3500 
L 1159 2956 
Q 1366 3272 1645 3428 
Q 1925 3584 2291 3584 
Q 2894 3584 3203 3211 
Q 3513 2838 3513 2113 
z
" transform="scale(0.015625)"/>
       <path id="DejaVuSans-63" d="M 3122 3366 
L 3122 2828 
Q 2878 2963 2633 3030 
Q 2388 3097 2138 3097 
Q 1578 3097 1268 2742 
Q 959 2388 959 1747 
Q 959 1106 1268 751 
Q 1578 397 2138 397 
Q 2388 397 2633 464 
Q 2878 531 3122 666 
L 3122 134 
Q 2881 22 2623 -34 
Q 2366 -91 2075 -91 
Q 1284 -91 818 406 
Q 353 903 353 1747 
Q 353 2603 823 3093 
Q 1294 3584 2113 3584 
Q 2378 3584 2631 3529 
Q 2884 3475 3122 3366 
z
" transform="scale(0.015625)"/>
       <path id="DejaVuSans-20" transform="scale(0.015625)"/>
       <path id="DejaVuSans-62" d="M 3116 1747 
Q 3116 2381 2855 2742 
Q 2594 3103 2138 3103 
Q 1681 3103 1420 2742 
Q 1159 2381 1159 1747 
Q 1159 1113 1420 752 
Q 1681 391 2138 391 
Q 2594 391 2855 752 
Q 3116 1113 3116 1747 
z
M 1159 2969 
Q 1341 3281 1617 3432 
Q 1894 3584 2278 3584 
Q 2916 3584 3314 3078 
Q 3713 2572 3713 1747 
Q 3713 922 3314 415 
Q 2916 -91 2278 -91 
Q 1894 -91 1617 61 
Q 1341 213 1159 525 
L 1159 0 
L 581 0 
L 581 4863 
L 1159 4863 
L 1159 2969 
z
" transform="scale(0.015625)"/>
       <path id="DejaVuSans-74" d="M 1172 4494 
L 1172 3500 
L 2356 3500 
L 2356 3053 
L 1172 3053 
L 1172 1153 
Q 1172 725 1289 603 
Q 1406 481 1766 481 
L 2356 481 
L 2356 0 
L 1766 0 
Q 1100 0 847 248 
Q 594 497 594 1153 
L 594 3053 
L 172 3053 
L 172 3500 
L 594 3500 
L 594 4494 
L 1172 4494 
z
" transform="scale(0.015625)"/>
       <path id="DejaVuSans-77" d="M 269 3500 
L 844 3500 
L 1563 769 
L 2278 3500 
L 2956 3500 
L 3675 769 
L 4391 3500 
L 4966 3500 
L 4050 0 
L 3372 0 
L 2619 2869 
L 1863 0 
L 1184 0 
L 269 3500 
z
" transform="scale(0.015625)"/>
       <path id="DejaVuSans-4c" d="M 628 4666 
L 1259 4666 
L 1259 531 
L 3531 531 
L 3531 0 
L 628 0 
L 628 4666 
z
" transform="scale(0.015625)"/>
       <path id="DejaVuSans-61" d="M 2194 1759 
Q 1497 1759 1228 1600 
Q 959 1441 959 1056 
Q 959 750 1161 570 
Q 1363 391 1709 391 
Q 2188 391 2477 730 
Q 2766 1069 2766 1631 
L 2766 1759 
L 2194 1759 
z
M 3341 1997 
L 3341 0 
L 2766 0 
L 2766 531 
Q 2569 213 2275 61 
Q 1981 -91 1556 -91 
Q 1019 -91 701 211 
Q 384 513 384 1019 
Q 384 1609 779 1909 
Q 1175 2209 1959 2209 
L 2766 2209 
L 2766 2266 
Q 2766 2663 2505 2880 
Q 2244 3097 1772 3097 
Q 1472 3097 1187 3025 
Q 903 2953 641 2809 
L 641 3341 
Q 956 3463 1253 3523 
Q 1550 3584 1831 3584 
Q 2591 3584 2966 3190 
Q 3341 2797 3341 1997 
z
" transform="scale(0.015625)"/>
       <path id="DejaVuSans-64" d="M 2906 2969 
L 2906 4863 
L 3481 4863 
L 3481 0 
L 2906 0 
L 2906 525 
Q 2725 213 2448 61 
Q 2172 -91 1784 -91 
Q 1150 -91 751 415 
Q 353 922 353 1747 
Q 353 2572 751 3078 
Q 1150 3584 1784 3584 
Q 2172 3584 2448 3432 
Q 2725 3281 2906 2969 
z
M 947 1747 
Q 947 1113 1208 752 
Q 1469 391 1925 391 
Q 2381 391 2643 752 
Q 2906 1113 2906 1747 
Q 2906 2381 2643 2742 
Q 2381 3103 1925 3103 
Q 1469 3103 1208 2742 
Q 947 2381 947 1747 
z
" transform="scale(0.015625)"/>
       <path id="DejaVuSans-6f" d="M 1959 3097 
Q 1497 3097 1228 2736 
Q 959 2375 959 1747 
Q 959 1119 1226 758 
Q 1494 397 1959 397 
Q 2419 397 2687 759 
Q 2956 1122 2956 1747 
Q 2956 2369 2687 2733 
Q 2419 3097 1959 3097 
z
M 1959 3584 
Q 2709 3584 3137 3096 
Q 3566 2609 3566 1747 
Q 3566 888 3137 398 
Q 2709 -91 1959 -91 
Q 1206 -91 779 398 
Q 353 888 353 1747 
Q 353 2609 779 3096 
Q 1206 3584 1959 3584 
z
" transform="scale(0.015625)"/>
       <path id="DejaVuSans-67" d="M 2906 1791 
Q 2906 2416 2648 2759 
Q 2391 3103 1925 3103 
Q 1463 3103 1205 2759 
Q 947 2416 947 1791 
Q 947 1169 1205 825 
Q 1463 481 1925 481 
Q 2391 481 2648 825 
Q 2906 1169 2906 1791 
z
M 3481 434 
Q 3481 -459 3084 -895 
Q 2688 -1331 1869 -1331 
Q 1566 -1331 1297 -1286 
Q 1028 -1241 775 -1147 
L 775 -588 
Q 1028 -725 1275 -790 
Q 1522 -856 1778 -856 
Q 2344 -856 2625 -561 
Q 2906 -266 2906 331 
L 2906 616 
Q 2728 306 2450 153 
Q 2172 0 1784 0 
Q 1141 0 747 490 
Q 353 981 353 1791 
Q 353 2603 747 3093 
Q 1141 3584 1784 3584 
Q 2172 3584 2450 3431 
Q 2728 3278 2906 2969 
L 2906 3500 
L 3481 3500 
L 3481 434 
z
" transform="scale(0.015625)"/>
       <path id="DejaVuSans-52" d="M 2841 2188 
Q 3044 2119 3236 1894 
Q 3428 1669 3622 1275 
L 4263 0 
L 3584 0 
L 2988 1197 
Q 2756 1666 2539 1819 
Q 2322 1972 1947 1972 
L 1259 1972 
L 1259 0 
L 628 0 
L 628 4666 
L 2053 4666 
Q 2853 4666 3247 4331 
Q 3641 3997 3641 3322 
Q 3641 2881 3436 2590 
Q 3231 2300 2841 2188 
z
M 1259 4147 
L 1259 2491 
L 2053 2491 
Q 2509 2491 2742 2702 
Q 2975 2913 2975 3322 
Q 2975 3731 2742 3939 
Q 2509 4147 2053 4147 
L 1259 4147 
z
" transform="scale(0.015625)"/>
       <path id="DejaVuSans-4d" d="M 628 4666 
L 1569 4666 
L 2759 1491 
L 3956 4666 
L 4897 4666 
L 4897 0 
L 4281 0 
L 4281 4097 
L 3078 897 
L 2444 897 
L 1241 4097 
L 1241 0 
L 628 0 
L 628 4666 
z
" transform="scale(0.015625)"/>
       <path id="DejaVuSans-6c" d="M 603 4863 
L 1178 4863 
L 1178 0 
L 603 0 
L 603 4863 
z
" transform="scale(0.015625)"/>
       <path id="DejaVuSans-73" d="M 2834 3397 
L 2834 2853 
Q 2591 2978 2328 3040 
Q 2066 3103 1784 3103 
Q 1356 3103 1142 2972 
Q 928 2841 928 2578 
Q 928 2378 1081 2264 
Q 1234 2150 1697 2047 
L 1894 2003 
Q 2506 1872 2764 1633 
Q 3022 1394 3022 966 
Q 3022 478 2636 193 
Q 2250 -91 1575 -91 
Q 1294 -91 989 -36 
Q 684 19 347 128 
L 347 722 
Q 666 556 975 473 
Q 1284 391 1588 391 
Q 1994 391 2212 530 
Q 2431 669 2431 922 
Q 2431 1156 2273 1281 
Q 2116 1406 1581 1522 
L 1381 1569 
Q 847 1681 609 1914 
Q 372 2147 372 2553 
Q 372 3047 722 3315 
Q 1072 3584 1716 3584 
Q 2034 3584 2315 3537 
Q 2597 3491 2834 3397 
z
" transform="scale(0.015625)"/>
      </defs>
      <use xlink:href="#DejaVuSans-44"/>
      <use xlink:href="#DejaVuSans-69" x="77.001953"/>
      <use xlink:href="#DejaVuSans-66" x="104.785156"/>
      <use xlink:href="#DejaVuSans-66" x="139.990234"/>
      <use xlink:href="#DejaVuSans-65" x="175.195312"/>
      <use xlink:href="#DejaVuSans-72" x="236.71875"/>
      <use xlink:href="#DejaVuSans-65" x="275.582031"/>
      <use xlink:href="#DejaVuSans-6e" x="337.105469"/>
      <use xlink:href="#DejaVuSans-63" x="400.484375"/>
      <use xlink:href="#DejaVuSans-65" x="455.464844"/>
      <use xlink:href="#DejaVuSans-20" x="516.988281"/>
      <use xlink:href="#DejaVuSans-62" x="548.775391"/>
      <use xlink:href="#DejaVuSans-65" x="612.251953"/>
      <use xlink:href="#DejaVuSans-74" x="673.775391"/>
      <use xlink:href="#DejaVuSans-77" x="712.984375"/>
      <use xlink:href="#DejaVuSans-65" x="794.771484"/>
      <use xlink:href="#DejaVuSans-65" x="856.294922"/>
      <use xlink:href="#DejaVuSans-6e" x="917.818359"/>
      <use xlink:href="#DejaVuSans-20" x="981.197266"/>
      <use xlink:href="#DejaVuSans-44" x="1012.984375"/>
      <use xlink:href="#DejaVuSans-4c" x="1089.986328"/>
      <use xlink:href="#DejaVuSans-20" x="1145.699219"/>
      <use xlink:href="#DejaVuSans-61" x="1177.486328"/>
      <use xlink:href="#DejaVuSans-6e" x="1238.765625"/>
      <use xlink:href="#DejaVuSans-64" x="1302.144531"/>
      <use xlink:href="#DejaVuSans-20" x="1365.621094"/>
      <use xlink:href="#DejaVuSans-4c" x="1397.408203"/>
      <use xlink:href="#DejaVuSans-6f" x="1451.371094"/>
      <use xlink:href="#DejaVuSans-67" x="1512.552734"/>
      <use xlink:href="#DejaVuSans-52" x="1576.029297"/>
      <use xlink:href="#DejaVuSans-65" x="1641.011719"/>
      <use xlink:href="#DejaVuSans-67" x="1702.535156"/>
      <use xlink:href="#DejaVuSans-20" x="1766.011719"/>
      <use xlink:href="#DejaVuSans-4d" x="1797.798828"/>
      <use xlink:href="#DejaVuSans-6f" x="1884.078125"/>
      <use xlink:href="#DejaVuSans-64" x="1945.259766"/>
      <use xlink:href="#DejaVuSans-65" x="2008.736328"/>
      <use xlink:href="#DejaVuSans-6c" x="2070.259766"/>
      <use xlink:href="#DejaVuSans-73" x="2098.042969"/>
     </g>
    </g>
   </g>
   <g id="matplotlib.axis_2">
    <g id="ytick_1">
     <g id="line2d_8">
      <defs>
       <path id="mb1ef6bf976" d="M 0 0 
L -3.5 0 
" style="stroke: #000000; stroke-width: 0.8"/>
      </defs>
      <g>
       <use xlink:href="#mb1ef6bf976" x="65.920313" y="362.846796" style="stroke: #000000; stroke-width: 0.8"/>
      </g>
     </g>
     <g id="text_9">
      <!-- Horror -->
      <g transform="translate(27.229688 366.646015) scale(0.1 -0.1)">
       <defs>
        <path id="DejaVuSans-48" d="M 628 4666 
L 1259 4666 
L 1259 2753 
L 3553 2753 
L 3553 4666 
L 4184 4666 
L 4184 0 
L 3553 0 
L 3553 2222 
L 1259 2222 
L 1259 0 
L 628 0 
L 628 4666 
z
" transform="scale(0.015625)"/>
       </defs>
       <use xlink:href="#DejaVuSans-48"/>
       <use xlink:href="#DejaVuSans-6f" x="75.195312"/>
       <use xlink:href="#DejaVuSans-72" x="136.376953"/>
       <use xlink:href="#DejaVuSans-72" x="175.740234"/>
       <use xlink:href="#DejaVuSans-6f" x="214.603516"/>
       <use xlink:href="#DejaVuSans-72" x="275.785156"/>
      </g>
     </g>
    </g>
    <g id="ytick_2">
     <g id="line2d_9">
      <g>
       <use xlink:href="#mb1ef6bf976" x="65.920313" y="346.963929" style="stroke: #000000; stroke-width: 0.8"/>
      </g>
     </g>
     <g id="text_10">
      <!-- Crime -->
      <g transform="translate(29.154688 350.763148) scale(0.1 -0.1)">
       <defs>
        <path id="DejaVuSans-43" d="M 4122 4306 
L 4122 3641 
Q 3803 3938 3442 4084 
Q 3081 4231 2675 4231 
Q 1875 4231 1450 3742 
Q 1025 3253 1025 2328 
Q 1025 1406 1450 917 
Q 1875 428 2675 428 
Q 3081 428 3442 575 
Q 3803 722 4122 1019 
L 4122 359 
Q 3791 134 3420 21 
Q 3050 -91 2638 -91 
Q 1578 -91 968 557 
Q 359 1206 359 2328 
Q 359 3453 968 4101 
Q 1578 4750 2638 4750 
Q 3056 4750 3426 4639 
Q 3797 4528 4122 4306 
z
" transform="scale(0.015625)"/>
        <path id="DejaVuSans-6d" d="M 3328 2828 
Q 3544 3216 3844 3400 
Q 4144 3584 4550 3584 
Q 5097 3584 5394 3201 
Q 5691 2819 5691 2113 
L 5691 0 
L 5113 0 
L 5113 2094 
Q 5113 2597 4934 2840 
Q 4756 3084 4391 3084 
Q 3944 3084 3684 2787 
Q 3425 2491 3425 1978 
L 3425 0 
L 2847 0 
L 2847 2094 
Q 2847 2600 2669 2842 
Q 2491 3084 2119 3084 
Q 1678 3084 1418 2786 
Q 1159 2488 1159 1978 
L 1159 0 
L 581 0 
L 581 3500 
L 1159 3500 
L 1159 2956 
Q 1356 3278 1631 3431 
Q 1906 3584 2284 3584 
Q 2666 3584 2933 3390 
Q 3200 3197 3328 2828 
z
" transform="scale(0.015625)"/>
       </defs>
       <use xlink:href="#DejaVuSans-43"/>
       <use xlink:href="#DejaVuSans-72" x="69.824219"/>
       <use xlink:href="#DejaVuSans-69" x="110.9375"/>
       <use xlink:href="#DejaVuSans-6d" x="138.720703"/>
       <use xlink:href="#DejaVuSans-65" x="236.132812"/>
      </g>
     </g>
    </g>
    <g id="ytick_3">
     <g id="line2d_10">
      <g>
       <use xlink:href="#mb1ef6bf976" x="65.920313" y="331.081062" style="stroke: #000000; stroke-width: 0.8"/>
      </g>
     </g>
     <g id="text_11">
      <!-- Romance -->
      <g transform="translate(12.445313 334.880281) scale(0.1 -0.1)">
       <use xlink:href="#DejaVuSans-52"/>
       <use xlink:href="#DejaVuSans-6f" x="64.982422"/>
       <use xlink:href="#DejaVuSans-6d" x="126.164062"/>
       <use xlink:href="#DejaVuSans-61" x="223.576172"/>
       <use xlink:href="#DejaVuSans-6e" x="284.855469"/>
       <use xlink:href="#DejaVuSans-63" x="348.234375"/>
       <use xlink:href="#DejaVuSans-65" x="403.214844"/>
      </g>
     </g>
    </g>
    <g id="ytick_4">
     <g id="line2d_11">
      <g>
       <use xlink:href="#mb1ef6bf976" x="65.920313" y="315.198195" style="stroke: #000000; stroke-width: 0.8"/>
      </g>
     </g>
     <g id="text_12">
      <!-- Drama -->
      <g transform="translate(25.1125 318.997414) scale(0.1 -0.1)">
       <use xlink:href="#DejaVuSans-44"/>
       <use xlink:href="#DejaVuSans-72" x="77.001953"/>
       <use xlink:href="#DejaVuSans-61" x="118.115234"/>
       <use xlink:href="#DejaVuSans-6d" x="179.394531"/>
       <use xlink:href="#DejaVuSans-61" x="276.806641"/>
      </g>
     </g>
    </g>
    <g id="ytick_5">
     <g id="line2d_12">
      <g>
       <use xlink:href="#mb1ef6bf976" x="65.920313" y="299.315328" style="stroke: #000000; stroke-width: 0.8"/>
      </g>
     </g>
     <g id="text_13">
      <!-- Sci-Fi -->
      <g transform="translate(32.882813 303.114547) scale(0.1 -0.1)">
       <defs>
        <path id="DejaVuSans-53" d="M 3425 4513 
L 3425 3897 
Q 3066 4069 2747 4153 
Q 2428 4238 2131 4238 
Q 1616 4238 1336 4038 
Q 1056 3838 1056 3469 
Q 1056 3159 1242 3001 
Q 1428 2844 1947 2747 
L 2328 2669 
Q 3034 2534 3370 2195 
Q 3706 1856 3706 1288 
Q 3706 609 3251 259 
Q 2797 -91 1919 -91 
Q 1588 -91 1214 -16 
Q 841 59 441 206 
L 441 856 
Q 825 641 1194 531 
Q 1563 422 1919 422 
Q 2459 422 2753 634 
Q 3047 847 3047 1241 
Q 3047 1584 2836 1778 
Q 2625 1972 2144 2069 
L 1759 2144 
Q 1053 2284 737 2584 
Q 422 2884 422 3419 
Q 422 4038 858 4394 
Q 1294 4750 2059 4750 
Q 2388 4750 2728 4690 
Q 3069 4631 3425 4513 
z
" transform="scale(0.015625)"/>
        <path id="DejaVuSans-2d" d="M 313 2009 
L 1997 2009 
L 1997 1497 
L 313 1497 
L 313 2009 
z
" transform="scale(0.015625)"/>
        <path id="DejaVuSans-46" d="M 628 4666 
L 3309 4666 
L 3309 4134 
L 1259 4134 
L 1259 2759 
L 3109 2759 
L 3109 2228 
L 1259 2228 
L 1259 0 
L 628 0 
L 628 4666 
z
" transform="scale(0.015625)"/>
       </defs>
       <use xlink:href="#DejaVuSans-53"/>
       <use xlink:href="#DejaVuSans-63" x="63.476562"/>
       <use xlink:href="#DejaVuSans-69" x="118.457031"/>
       <use xlink:href="#DejaVuSans-2d" x="146.240234"/>
       <use xlink:href="#DejaVuSans-46" x="182.324219"/>
       <use xlink:href="#DejaVuSans-69" x="232.59375"/>
      </g>
     </g>
    </g>
    <g id="ytick_6">
     <g id="line2d_13">
      <g>
       <use xlink:href="#mb1ef6bf976" x="65.920313" y="283.432461" style="stroke: #000000; stroke-width: 0.8"/>
      </g>
     </g>
     <g id="text_14">
      <!-- Film-Noir -->
      <g transform="translate(14.5 287.231679) scale(0.1 -0.1)">
       <defs>
        <path id="DejaVuSans-4e" d="M 628 4666 
L 1478 4666 
L 3547 763 
L 3547 4666 
L 4159 4666 
L 4159 0 
L 3309 0 
L 1241 3903 
L 1241 0 
L 628 0 
L 628 4666 
z
" transform="scale(0.015625)"/>
       </defs>
       <use xlink:href="#DejaVuSans-46"/>
       <use xlink:href="#DejaVuSans-69" x="50.269531"/>
       <use xlink:href="#DejaVuSans-6c" x="78.052734"/>
       <use xlink:href="#DejaVuSans-6d" x="105.835938"/>
       <use xlink:href="#DejaVuSans-2d" x="203.248047"/>
       <use xlink:href="#DejaVuSans-4e" x="239.332031"/>
       <use xlink:href="#DejaVuSans-6f" x="314.136719"/>
       <use xlink:href="#DejaVuSans-69" x="375.318359"/>
       <use xlink:href="#DejaVuSans-72" x="403.101562"/>
      </g>
     </g>
    </g>
    <g id="ytick_7">
     <g id="line2d_14">
      <g>
       <use xlink:href="#mb1ef6bf976" x="65.920313" y="267.549594" style="stroke: #000000; stroke-width: 0.8"/>
      </g>
     </g>
     <g id="text_15">
      <!-- War -->
      <g transform="translate(39.43125 271.348812) scale(0.1 -0.1)">
       <defs>
        <path id="DejaVuSans-57" d="M 213 4666 
L 850 4666 
L 1831 722 
L 2809 4666 
L 3519 4666 
L 4500 722 
L 5478 4666 
L 6119 4666 
L 4947 0 
L 4153 0 
L 3169 4050 
L 2175 0 
L 1381 0 
L 213 4666 
z
" transform="scale(0.015625)"/>
       </defs>
       <use xlink:href="#DejaVuSans-57"/>
       <use xlink:href="#DejaVuSans-61" x="92.501953"/>
       <use xlink:href="#DejaVuSans-72" x="153.78125"/>
      </g>
     </g>
    </g>
    <g id="ytick_8">
     <g id="line2d_15">
      <g>
       <use xlink:href="#mb1ef6bf976" x="65.920313" y="251.666726" style="stroke: #000000; stroke-width: 0.8"/>
      </g>
     </g>
     <g id="text_16">
      <!-- Action -->
      <g transform="translate(27.601563 255.465945) scale(0.1 -0.1)">
       <defs>
        <path id="DejaVuSans-41" d="M 2188 4044 
L 1331 1722 
L 3047 1722 
L 2188 4044 
z
M 1831 4666 
L 2547 4666 
L 4325 0 
L 3669 0 
L 3244 1197 
L 1141 1197 
L 716 0 
L 50 0 
L 1831 4666 
z
" transform="scale(0.015625)"/>
       </defs>
       <use xlink:href="#DejaVuSans-41"/>
       <use xlink:href="#DejaVuSans-63" x="66.658203"/>
       <use xlink:href="#DejaVuSans-74" x="121.638672"/>
       <use xlink:href="#DejaVuSans-69" x="160.847656"/>
       <use xlink:href="#DejaVuSans-6f" x="188.630859"/>
       <use xlink:href="#DejaVuSans-6e" x="249.8125"/>
      </g>
     </g>
    </g>
    <g id="ytick_9">
     <g id="line2d_16">
      <g>
       <use xlink:href="#mb1ef6bf976" x="65.920313" y="235.783859" style="stroke: #000000; stroke-width: 0.8"/>
      </g>
     </g>
     <g id="text_17">
      <!-- Family -->
      <g transform="translate(26.7375 239.583078) scale(0.1 -0.1)">
       <defs>
        <path id="DejaVuSans-79" d="M 2059 -325 
Q 1816 -950 1584 -1140 
Q 1353 -1331 966 -1331 
L 506 -1331 
L 506 -850 
L 844 -850 
Q 1081 -850 1212 -737 
Q 1344 -625 1503 -206 
L 1606 56 
L 191 3500 
L 800 3500 
L 1894 763 
L 2988 3500 
L 3597 3500 
L 2059 -325 
z
" transform="scale(0.015625)"/>
       </defs>
       <use xlink:href="#DejaVuSans-46"/>
       <use xlink:href="#DejaVuSans-61" x="48.394531"/>
       <use xlink:href="#DejaVuSans-6d" x="109.673828"/>
       <use xlink:href="#DejaVuSans-69" x="207.085938"/>
       <use xlink:href="#DejaVuSans-6c" x="234.869141"/>
       <use xlink:href="#DejaVuSans-79" x="262.652344"/>
      </g>
     </g>
    </g>
    <g id="ytick_10">
     <g id="line2d_17">
      <g>
       <use xlink:href="#mb1ef6bf976" x="65.920313" y="219.900992" style="stroke: #000000; stroke-width: 0.8"/>
      </g>
     </g>
     <g id="text_18">
      <!-- Musical -->
      <g transform="translate(21.5625 223.700211) scale(0.1 -0.1)">
       <defs>
        <path id="DejaVuSans-75" d="M 544 1381 
L 544 3500 
L 1119 3500 
L 1119 1403 
Q 1119 906 1312 657 
Q 1506 409 1894 409 
Q 2359 409 2629 706 
Q 2900 1003 2900 1516 
L 2900 3500 
L 3475 3500 
L 3475 0 
L 2900 0 
L 2900 538 
Q 2691 219 2414 64 
Q 2138 -91 1772 -91 
Q 1169 -91 856 284 
Q 544 659 544 1381 
z
M 1991 3584 
L 1991 3584 
z
" transform="scale(0.015625)"/>
       </defs>
       <use xlink:href="#DejaVuSans-4d"/>
       <use xlink:href="#DejaVuSans-75" x="86.279297"/>
       <use xlink:href="#DejaVuSans-73" x="149.658203"/>
       <use xlink:href="#DejaVuSans-69" x="201.757812"/>
       <use xlink:href="#DejaVuSans-63" x="229.541016"/>
       <use xlink:href="#DejaVuSans-61" x="284.521484"/>
       <use xlink:href="#DejaVuSans-6c" x="345.800781"/>
      </g>
     </g>
    </g>
    <g id="ytick_11">
     <g id="line2d_18">
      <g>
       <use xlink:href="#mb1ef6bf976" x="65.920313" y="204.018125" style="stroke: #000000; stroke-width: 0.8"/>
      </g>
     </g>
     <g id="text_19">
      <!-- Thriller -->
      <g transform="translate(23.765625 207.817344) scale(0.1 -0.1)">
       <defs>
        <path id="DejaVuSans-54" d="M -19 4666 
L 3928 4666 
L 3928 4134 
L 2272 4134 
L 2272 0 
L 1638 0 
L 1638 4134 
L -19 4134 
L -19 4666 
z
" transform="scale(0.015625)"/>
        <path id="DejaVuSans-68" d="M 3513 2113 
L 3513 0 
L 2938 0 
L 2938 2094 
Q 2938 2591 2744 2837 
Q 2550 3084 2163 3084 
Q 1697 3084 1428 2787 
Q 1159 2491 1159 1978 
L 1159 0 
L 581 0 
L 581 4863 
L 1159 4863 
L 1159 2956 
Q 1366 3272 1645 3428 
Q 1925 3584 2291 3584 
Q 2894 3584 3203 3211 
Q 3513 2838 3513 2113 
z
" transform="scale(0.015625)"/>
       </defs>
       <use xlink:href="#DejaVuSans-54"/>
       <use xlink:href="#DejaVuSans-68" x="61.083984"/>
       <use xlink:href="#DejaVuSans-72" x="124.462891"/>
       <use xlink:href="#DejaVuSans-69" x="165.576172"/>
       <use xlink:href="#DejaVuSans-6c" x="193.359375"/>
       <use xlink:href="#DejaVuSans-6c" x="221.142578"/>
       <use xlink:href="#DejaVuSans-65" x="248.925781"/>
       <use xlink:href="#DejaVuSans-72" x="310.449219"/>
      </g>
     </g>
    </g>
    <g id="ytick_12">
     <g id="line2d_19">
      <g>
       <use xlink:href="#mb1ef6bf976" x="65.920313" y="188.135258" style="stroke: #000000; stroke-width: 0.8"/>
      </g>
     </g>
     <g id="text_20">
      <!-- Music -->
      <g transform="translate(30.46875 191.934477) scale(0.1 -0.1)">
       <use xlink:href="#DejaVuSans-4d"/>
       <use xlink:href="#DejaVuSans-75" x="86.279297"/>
       <use xlink:href="#DejaVuSans-73" x="149.658203"/>
       <use xlink:href="#DejaVuSans-69" x="201.757812"/>
       <use xlink:href="#DejaVuSans-63" x="229.541016"/>
      </g>
     </g>
    </g>
    <g id="ytick_13">
     <g id="line2d_20">
      <g>
       <use xlink:href="#mb1ef6bf976" x="65.920313" y="172.252391" style="stroke: #000000; stroke-width: 0.8"/>
      </g>
     </g>
     <g id="text_21">
      <!-- Adventure -->
      <g transform="translate(7.2 176.051609) scale(0.1 -0.1)">
       <defs>
        <path id="DejaVuSans-76" d="M 191 3500 
L 800 3500 
L 1894 563 
L 2988 3500 
L 3597 3500 
L 2284 0 
L 1503 0 
L 191 3500 
z
" transform="scale(0.015625)"/>
       </defs>
       <use xlink:href="#DejaVuSans-41"/>
       <use xlink:href="#DejaVuSans-64" x="66.658203"/>
       <use xlink:href="#DejaVuSans-76" x="130.134766"/>
       <use xlink:href="#DejaVuSans-65" x="189.314453"/>
       <use xlink:href="#DejaVuSans-6e" x="250.837891"/>
       <use xlink:href="#DejaVuSans-74" x="314.216797"/>
       <use xlink:href="#DejaVuSans-75" x="353.425781"/>
       <use xlink:href="#DejaVuSans-72" x="416.804688"/>
       <use xlink:href="#DejaVuSans-65" x="455.667969"/>
      </g>
     </g>
    </g>
    <g id="ytick_14">
     <g id="line2d_21">
      <g>
       <use xlink:href="#mb1ef6bf976" x="65.920313" y="156.369524" style="stroke: #000000; stroke-width: 0.8"/>
      </g>
     </g>
     <g id="text_22">
      <!-- Biography -->
      <g transform="translate(7.970313 160.168742) scale(0.1 -0.1)">
       <defs>
        <path id="DejaVuSans-42" d="M 1259 2228 
L 1259 519 
L 2272 519 
Q 2781 519 3026 730 
Q 3272 941 3272 1375 
Q 3272 1813 3026 2020 
Q 2781 2228 2272 2228 
L 1259 2228 
z
M 1259 4147 
L 1259 2741 
L 2194 2741 
Q 2656 2741 2882 2914 
Q 3109 3088 3109 3444 
Q 3109 3797 2882 3972 
Q 2656 4147 2194 4147 
L 1259 4147 
z
M 628 4666 
L 2241 4666 
Q 2963 4666 3353 4366 
Q 3744 4066 3744 3513 
Q 3744 3084 3544 2831 
Q 3344 2578 2956 2516 
Q 3422 2416 3680 2098 
Q 3938 1781 3938 1306 
Q 3938 681 3513 340 
Q 3088 0 2303 0 
L 628 0 
L 628 4666 
z
" transform="scale(0.015625)"/>
        <path id="DejaVuSans-70" d="M 1159 525 
L 1159 -1331 
L 581 -1331 
L 581 3500 
L 1159 3500 
L 1159 2969 
Q 1341 3281 1617 3432 
Q 1894 3584 2278 3584 
Q 2916 3584 3314 3078 
Q 3713 2572 3713 1747 
Q 3713 922 3314 415 
Q 2916 -91 2278 -91 
Q 1894 -91 1617 61 
Q 1341 213 1159 525 
z
M 3116 1747 
Q 3116 2381 2855 2742 
Q 2594 3103 2138 3103 
Q 1681 3103 1420 2742 
Q 1159 2381 1159 1747 
Q 1159 1113 1420 752 
Q 1681 391 2138 391 
Q 2594 391 2855 752 
Q 3116 1113 3116 1747 
z
" transform="scale(0.015625)"/>
       </defs>
       <use xlink:href="#DejaVuSans-42"/>
       <use xlink:href="#DejaVuSans-69" x="68.603516"/>
       <use xlink:href="#DejaVuSans-6f" x="96.386719"/>
       <use xlink:href="#DejaVuSans-67" x="157.568359"/>
       <use xlink:href="#DejaVuSans-72" x="221.044922"/>
       <use xlink:href="#DejaVuSans-61" x="262.158203"/>
       <use xlink:href="#DejaVuSans-70" x="323.4375"/>
       <use xlink:href="#DejaVuSans-68" x="386.914062"/>
       <use xlink:href="#DejaVuSans-79" x="450.292969"/>
      </g>
     </g>
    </g>
    <g id="ytick_15">
     <g id="line2d_22">
      <g>
       <use xlink:href="#mb1ef6bf976" x="65.920313" y="140.486656" style="stroke: #000000; stroke-width: 0.8"/>
      </g>
     </g>
     <g id="text_23">
      <!-- Comedy -->
      <g transform="translate(17.657813 144.285875) scale(0.1 -0.1)">
       <use xlink:href="#DejaVuSans-43"/>
       <use xlink:href="#DejaVuSans-6f" x="69.824219"/>
       <use xlink:href="#DejaVuSans-6d" x="131.005859"/>
       <use xlink:href="#DejaVuSans-65" x="228.417969"/>
       <use xlink:href="#DejaVuSans-64" x="289.941406"/>
       <use xlink:href="#DejaVuSans-79" x="353.417969"/>
      </g>
     </g>
    </g>
    <g id="ytick_16">
     <g id="line2d_23">
      <g>
       <use xlink:href="#mb1ef6bf976" x="65.920313" y="124.603789" style="stroke: #000000; stroke-width: 0.8"/>
      </g>
     </g>
     <g id="text_24">
      <!-- Western -->
      <g transform="translate(17.910938 128.403008) scale(0.1 -0.1)">
       <use xlink:href="#DejaVuSans-57"/>
       <use xlink:href="#DejaVuSans-65" x="93.001953"/>
       <use xlink:href="#DejaVuSans-73" x="154.525391"/>
       <use xlink:href="#DejaVuSans-74" x="206.625"/>
       <use xlink:href="#DejaVuSans-65" x="245.833984"/>
       <use xlink:href="#DejaVuSans-72" x="307.357422"/>
       <use xlink:href="#DejaVuSans-6e" x="346.720703"/>
      </g>
     </g>
    </g>
    <g id="ytick_17">
     <g id="line2d_24">
      <g>
       <use xlink:href="#mb1ef6bf976" x="65.920313" y="108.720922" style="stroke: #000000; stroke-width: 0.8"/>
      </g>
     </g>
     <g id="text_25">
      <!-- History -->
      <g transform="translate(23.34375 112.520141) scale(0.1 -0.1)">
       <use xlink:href="#DejaVuSans-48"/>
       <use xlink:href="#DejaVuSans-69" x="75.195312"/>
       <use xlink:href="#DejaVuSans-73" x="102.978516"/>
       <use xlink:href="#DejaVuSans-74" x="155.078125"/>
       <use xlink:href="#DejaVuSans-6f" x="194.287109"/>
       <use xlink:href="#DejaVuSans-72" x="255.46875"/>
       <use xlink:href="#DejaVuSans-79" x="296.582031"/>
      </g>
     </g>
    </g>
    <g id="ytick_18">
     <g id="line2d_25">
      <g>
       <use xlink:href="#mb1ef6bf976" x="65.920313" y="92.838055" style="stroke: #000000; stroke-width: 0.8"/>
      </g>
     </g>
     <g id="text_26">
      <!-- Fantasy -->
      <g transform="translate(20.439063 96.637274) scale(0.1 -0.1)">
       <use xlink:href="#DejaVuSans-46"/>
       <use xlink:href="#DejaVuSans-61" x="48.394531"/>
       <use xlink:href="#DejaVuSans-6e" x="109.673828"/>
       <use xlink:href="#DejaVuSans-74" x="173.052734"/>
       <use xlink:href="#DejaVuSans-61" x="212.261719"/>
       <use xlink:href="#DejaVuSans-73" x="273.541016"/>
       <use xlink:href="#DejaVuSans-79" x="325.640625"/>
      </g>
     </g>
    </g>
    <g id="ytick_19">
     <g id="line2d_26">
      <g>
       <use xlink:href="#mb1ef6bf976" x="65.920313" y="76.955188" style="stroke: #000000; stroke-width: 0.8"/>
      </g>
     </g>
     <g id="text_27">
      <!-- Mystery -->
      <g transform="translate(19.060938 80.754407) scale(0.1 -0.1)">
       <use xlink:href="#DejaVuSans-4d"/>
       <use xlink:href="#DejaVuSans-79" x="86.279297"/>
       <use xlink:href="#DejaVuSans-73" x="145.458984"/>
       <use xlink:href="#DejaVuSans-74" x="197.558594"/>
       <use xlink:href="#DejaVuSans-65" x="236.767578"/>
       <use xlink:href="#DejaVuSans-72" x="298.291016"/>
       <use xlink:href="#DejaVuSans-79" x="339.404297"/>
      </g>
     </g>
    </g>
    <g id="ytick_20">
     <g id="line2d_27">
      <g>
       <use xlink:href="#mb1ef6bf976" x="65.920313" y="61.072321" style="stroke: #000000; stroke-width: 0.8"/>
      </g>
     </g>
     <g id="text_28">
      <!-- Animation -->
      <g transform="translate(7.940625 64.87154) scale(0.1 -0.1)">
       <use xlink:href="#DejaVuSans-41"/>
       <use xlink:href="#DejaVuSans-6e" x="68.408203"/>
       <use xlink:href="#DejaVuSans-69" x="131.787109"/>
       <use xlink:href="#DejaVuSans-6d" x="159.570312"/>
       <use xlink:href="#DejaVuSans-61" x="256.982422"/>
       <use xlink:href="#DejaVuSans-74" x="318.261719"/>
       <use xlink:href="#DejaVuSans-69" x="357.470703"/>
       <use xlink:href="#DejaVuSans-6f" x="385.253906"/>
       <use xlink:href="#DejaVuSans-6e" x="446.435547"/>
      </g>
     </g>
    </g>
    <g id="ytick_21">
     <g id="line2d_28">
      <g>
       <use xlink:href="#mb1ef6bf976" x="65.920313" y="45.189454" style="stroke: #000000; stroke-width: 0.8"/>
      </g>
     </g>
     <g id="text_29">
      <!-- Sport -->
      <g transform="translate(32.073438 48.988672) scale(0.1 -0.1)">
       <use xlink:href="#DejaVuSans-53"/>
       <use xlink:href="#DejaVuSans-70" x="63.476562"/>
       <use xlink:href="#DejaVuSans-6f" x="126.953125"/>
       <use xlink:href="#DejaVuSans-72" x="188.134766"/>
       <use xlink:href="#DejaVuSans-74" x="229.248047"/>
      </g>
     </g>
    </g>
   </g>
   <g id="line2d_29">
    <path d="M 193.206353 385.718125 
L 193.206353 22.318125 
" clip-path="url(#p3246e03c10)" style="fill: none; stroke: #808080; stroke-linecap: square"/>
   </g>
   <g id="patch_24">
    <path d="M 65.920313 385.718125 
L 65.920313 22.318125 
" style="fill: none; stroke: #000000; stroke-width: 0.8; stroke-linejoin: miter; stroke-linecap: square"/>
   </g>
   <g id="patch_25">
    <path d="M 705.570312 385.718125 
L 705.570312 22.318125 
" style="fill: none; stroke: #000000; stroke-width: 0.8; stroke-linejoin: miter; stroke-linecap: square"/>
   </g>
   <g id="patch_26">
    <path d="M 65.920312 385.718125 
L 705.570312 385.718125 
" style="fill: none; stroke: #000000; stroke-width: 0.8; stroke-linejoin: miter; stroke-linecap: square"/>
   </g>
   <g id="patch_27">
    <path d="M 65.920312 22.318125 
L 705.570312 22.318125 
" style="fill: none; stroke: #000000; stroke-width: 0.8; stroke-linejoin: miter; stroke-linecap: square"/>
   </g>
   <g id="text_30">
    <!-- Genre-wise Difference between DL and LogReg Models -->
    <g transform="translate(221.103438 16.318125) scale(0.12 -0.12)">
     <defs>
      <path id="DejaVuSans-47" d="M 3809 666 
L 3809 1919 
L 2778 1919 
L 2778 2438 
L 4434 2438 
L 4434 434 
Q 4069 175 3628 42 
Q 3188 -91 2688 -91 
Q 1594 -91 976 548 
Q 359 1188 359 2328 
Q 359 3472 976 4111 
Q 1594 4750 2688 4750 
Q 3144 4750 3555 4637 
Q 3966 4525 4313 4306 
L 4313 3634 
Q 3963 3931 3569 4081 
Q 3175 4231 2741 4231 
Q 1884 4231 1454 3753 
Q 1025 3275 1025 2328 
Q 1025 1384 1454 906 
Q 1884 428 2741 428 
Q 3075 428 3337 486 
Q 3600 544 3809 666 
z
" transform="scale(0.015625)"/>
     </defs>
     <use xlink:href="#DejaVuSans-47"/>
     <use xlink:href="#DejaVuSans-65" x="77.490234"/>
     <use xlink:href="#DejaVuSans-6e" x="139.013672"/>
     <use xlink:href="#DejaVuSans-72" x="202.392578"/>
     <use xlink:href="#DejaVuSans-65" x="241.255859"/>
     <use xlink:href="#DejaVuSans-2d" x="302.779297"/>
     <use xlink:href="#DejaVuSans-77" x="338.863281"/>
     <use xlink:href="#DejaVuSans-69" x="420.650391"/>
     <use xlink:href="#DejaVuSans-73" x="448.433594"/>
     <use xlink:href="#DejaVuSans-65" x="500.533203"/>
     <use xlink:href="#DejaVuSans-20" x="562.056641"/>
     <use xlink:href="#DejaVuSans-44" x="593.84375"/>
     <use xlink:href="#DejaVuSans-69" x="670.845703"/>
     <use xlink:href="#DejaVuSans-66" x="698.628906"/>
     <use xlink:href="#DejaVuSans-66" x="733.833984"/>
     <use xlink:href="#DejaVuSans-65" x="769.039062"/>
     <use xlink:href="#DejaVuSans-72" x="830.5625"/>
     <use xlink:href="#DejaVuSans-65" x="869.425781"/>
     <use xlink:href="#DejaVuSans-6e" x="930.949219"/>
     <use xlink:href="#DejaVuSans-63" x="994.328125"/>
     <use xlink:href="#DejaVuSans-65" x="1049.308594"/>
     <use xlink:href="#DejaVuSans-20" x="1110.832031"/>
     <use xlink:href="#DejaVuSans-62" x="1142.619141"/>
     <use xlink:href="#DejaVuSans-65" x="1206.095703"/>
     <use xlink:href="#DejaVuSans-74" x="1267.619141"/>
     <use xlink:href="#DejaVuSans-77" x="1306.828125"/>
     <use xlink:href="#DejaVuSans-65" x="1388.615234"/>
     <use xlink:href="#DejaVuSans-65" x="1450.138672"/>
     <use xlink:href="#DejaVuSans-6e" x="1511.662109"/>
     <use xlink:href="#DejaVuSans-20" x="1575.041016"/>
     <use xlink:href="#DejaVuSans-44" x="1606.828125"/>
     <use xlink:href="#DejaVuSans-4c" x="1683.830078"/>
     <use xlink:href="#DejaVuSans-20" x="1739.542969"/>
     <use xlink:href="#DejaVuSans-61" x="1771.330078"/>
     <use xlink:href="#DejaVuSans-6e" x="1832.609375"/>
     <use xlink:href="#DejaVuSans-64" x="1895.988281"/>
     <use xlink:href="#DejaVuSans-20" x="1959.464844"/>
     <use xlink:href="#DejaVuSans-4c" x="1991.251953"/>
     <use xlink:href="#DejaVuSans-6f" x="2045.214844"/>
     <use xlink:href="#DejaVuSans-67" x="2106.396484"/>
     <use xlink:href="#DejaVuSans-52" x="2169.873047"/>
     <use xlink:href="#DejaVuSans-65" x="2234.855469"/>
     <use xlink:href="#DejaVuSans-67" x="2296.378906"/>
     <use xlink:href="#DejaVuSans-20" x="2359.855469"/>
     <use xlink:href="#DejaVuSans-4d" x="2391.642578"/>
     <use xlink:href="#DejaVuSans-6f" x="2477.921875"/>
     <use xlink:href="#DejaVuSans-64" x="2539.103516"/>
     <use xlink:href="#DejaVuSans-65" x="2602.580078"/>
     <use xlink:href="#DejaVuSans-6c" x="2664.103516"/>
     <use xlink:href="#DejaVuSans-73" x="2691.886719"/>
    </g>
   </g>
  </g>
 </g>
 <defs>
  <clipPath id="p3246e03c10">
   <rect x="65.920313" y="22.318125" width="639.65" height="363.4"/>
  </clipPath>
 </defs>
</svg>
